<?xml version="1.0" encoding="UTF-8" standalone="no"?>
<svg
   viewBox="0 0 313 255.50864"
   version="1.1"
   xmlns="http://www.w3.org/2000/svg"
   xmlnsSvg="http://www.w3.org/2000/svg">
  <defs
     id="defs85" />
  <ellipse
     cx="79.714012"
     cy="250.96893"
     rx="10.90314"
     ry="4.0886798"
     fill="#2f2e41"
     id="ellipse14" />
  <ellipse
     cx="105.88149"
     cy="250.4238"
     rx="10.90314"
     ry="4.0886798"
     fill="#2f2e41"
     id="ellipse16" />
  <ellipse
     cx="29.036579"
     cy="224.42944"
     rx="21.533689"
     ry="6.7600698"
     transform="rotate(-29.96257)"
     fill="#2f2e41"
     id="ellipse18" />
  <circle
     cx="-176.79106"
     cy="118.28266"
     transform="rotate(-80.78252)"
     fill="#2f2e41"
     id="circle20"
     r="43.067348" />
  <rect
     x="68.810867"
     y="227.25464"
     width="13.08374"
     height="23.44171"
     fill="#2f2e41"
     id="rect22" />
  <rect
     x="94.978348"
     y="227.25464"
     width="13.08374"
     height="23.44171"
     fill="#2f2e41"
     id="rect24" />
  <circle
     cx="89.52681"
     cy="182.55185"
     fill="#ffffff"
     id="circle26"
     r="14.71922" />
  <circle
     cx="89.52681"
     cy="182.55185"
     fill="#3f3d56"
     id="circle28"
     r="4.9064202" />
  <path
     d="m 46.65975,153.40357 c -3.47748,-15.57379 7.63867,-31.31046 24.82861,-35.14884 17.18994,-3.83838 33.94421,5.67508 37.42169,21.24887 3.47748,15.57379 -7.91491,21.31766 -25.10486,25.156 -17.18995,3.83834 -33.66796,4.31779 -37.14544,-11.25603 z"
     fill="#e6e6e6"
     id="path30" />
  <ellipse
     cx="-139.62596"
     cy="110.41399"
     rx="6.7600698"
     ry="21.53368"
     transform="rotate(-64.62574)"
     fill="#2f2e41"
     id="ellipse32" />
  <path
     d="m 67.28194,208.99192 c 0,4.21514 10.85327,12.53857 22.89654,12.53857 12.04327,0 23.33515,-11.867 23.33515,-16.08209 0,-4.21509 -11.29193,0.81775 -23.33515,0.81775 -12.04322,0 -22.89654,-1.48938 -22.89654,2.72577 z"
     fill="#ffffff"
     id="path34" />
  <ellipse
     cx="238.60883"
     cy="250.96893"
     rx="10.90314"
     ry="4.0886798"
     fill="#2f2e41"
     id="ellipse36" />
  <ellipse
     cx="212.44135"
     cy="250.4238"
     rx="10.90314"
     ry="4.0886798"
     fill="#2f2e41"
     id="ellipse38" />
  <ellipse
     cx="-65.448105"
     cy="246.7429"
     rx="6.7600698"
     ry="21.533689"
     transform="rotate(-60.03743)"
     fill="#2f2e41"
     id="ellipse40" />
  <circle
     cx="229.88635"
     cy="193.45496"
     fill="#2f2e41"
     id="circle42"
     r="43.067341" />
  <rect
     x="236.42822"
     y="227.25464"
     width="13.08374"
     height="23.44171"
     fill="#2f2e41"
     id="rect44" />
  <rect
     x="210.26074"
     y="227.25464"
     width="13.08374"
     height="23.44171"
     fill="#2f2e41"
     id="rect46" />
  <circle
     cx="219.79602"
     cy="182.55185"
     fill="#ffffff"
     id="circle48"
     r="14.71922" />
  <ellipse
     cx="22.925003"
     cy="278.12863"
     rx="4.9205499"
     ry="4.8859301"
     transform="rotate(-44.97427)"
     fill="#3f3d56"
     id="ellipse50" />
  <path
     d="m 234.51764,164.65958 c -17.18994,-3.83832 -28.58234,-9.58219 -25.10486,-25.156 3.47748,-15.57381 20.23175,-25.08725 37.42169,-21.24887 17.18994,3.83838 28.3061,19.57505 24.82862,35.14884 -3.47748,15.57379 -19.95551,15.09435 -37.14545,11.25603 z"
     fill="#6c63ff"
     id="path52" />
  <ellipse
     cx="207.62167"
     cy="267.74094"
     rx="6.7600698"
     ry="21.53368"
     transform="rotate(-14.87459)"
     fill="#2f2e41"
     id="ellipse54" />
  <path
     d="m 220.12933,206.26679 c -7.90666,0 -15.32008,-5.03284 -15.32008,-0.81775 0,4.21509 7.41338,16.08209 15.32008,16.08209 7.9067,0 15.03213,-8.32343 15.03213,-12.53857 0,-4.21514 -7.12546,-2.72577 -15.03213,-2.72577 z"
     fill="#ffffff"
     id="path56" />
  <path
     d="M 164.47168,122.0477 H 160.647 a 12.93742,12.93742 0 0 1 -12.92285,-12.92285 v -3.21094 c 0,-7.953123 1.50684,-14.612303 4.479,-19.792483 a 104.11414,104.11414 0 0 1 12.542,-16.85156 74.26915,74.26915 0 0 0 8.52783,-10.27881 17.29,17.29 0 0 0 2.69336,-9.5625 c 0,-7.978 -5.19776,-11.85644 -15.89063,-11.85644 a 64.52587,64.52587 0 0 0 -17.51513,2.6289 14.7451,14.7451 0 0 1 -18.79248,-14.17822 v -6.5 a 14.46343,14.46343 0 0 1 8.53222,-13.2563501 78.08334,78.08334 0 0 1 31.81003,-6.25780999 c 11.44434,0 21.77539,1.92235999 30.707,5.71288999 8.94776,3.79932 16.01709,9.1567401 21.01123,15.9238301 a 38.35194,38.35194 0 0 1 7.53614,23.24414 c 0,8.98 -2.45166,16.80127 -7.28663,23.24658 -4.78222,6.37988 -11.63769,13.36426 -20.376,20.76026 a 145.20407,145.20407 0 0 0 -13.06348,12.306643 22.71817,22.71817 0 0 0 -5.43115,10.11132 12.888,12.888 0 0 1 -12.73578,10.7334 z"
     fill="#6c63ff"
     id="path58" />
  <path
     d="m 162.34521,182.81919 h -0.50439 a 23.95118,23.95118 0 0 1 0,-47.90235 h 0.50439 a 23.95118,23.95118 0 1 1 0,47.90235 z"
     fill="#6c63ff"
     id="path60" />
  <path
     d="M 312,255.50864 H 1 a 1,1 0 0 1 0,-2 h 311 a 1,1 0 0 1 0,2 z"
     fill="#cccccc"
     id="path62" />
</svg>
