<?xml version="1.0" encoding="UTF-8" standalone="no"?>
<svg
   viewBox="0 0 383 392.01631"
   version="1.1"
   xmlns="http://www.w3.org/2000/svg"
   xmlnsSvg="http://www.w3.org/2000/svg">
  <defs
     id="defs70" />
  <path
     d="m 318.7409,391.40742 0.95117,-1.75879 c -12.75342,-6.89746 -28.62573,-15.481 -36.916,-29.56738 -8.17237,-13.88623 -8.35572,-32.74268 -0.47852,-49.21094 6.70361,-14.01563 19.01782,-26.57227 35.61108,-36.313 3.273,-1.92139 6.70874,-3.74219 10.0315,-5.50342 8.03149,-4.25634 16.33642,-8.6582 23.18437,-14.90283 9.4316,-8.60107 16.5678,-23.03467 11.249,-35.89111 a 23.85569,23.85569 0 0 0 -20.67754,-14.46729 l -0.1128,1.99707 a 21.86063,21.86063 0 0 1 18.94774,13.24805 c 4.9427,11.94727 -1.8386,25.50488 -10.7541,33.63574 -6.66068,6.07373 -14.85184,10.415 -22.77323,14.61328 -3.34155,1.771 -6.79711,3.60254 -10.10766,5.5459 -16.93848,9.94336 -29.52637,22.79785 -36.40259,37.17432 -8.1604,17.06054 -7.94629,36.63672 0.55908,51.08887 8.57282,14.56592 24.71662,23.29688 37.6885,30.31153 z"
     fill="#f1f1f1"
     id="path2" />
  <ellipse
     cx="329.02026"
     cy="205.83383"
     rx="17.5"
     ry="8.5"
     fill="#f1f1f1"
     id="ellipse4" />
  <ellipse
     cx="315.02026"
     cy="261.83383"
     rx="17.5"
     ry="8.5"
     fill="#f1f1f1"
     id="ellipse6" />
  <ellipse
     cx="347.02026"
     cy="270.83383"
     rx="17.5"
     ry="8.5"
     fill="#f1f1f1"
     id="ellipse8" />
  <ellipse
     cx="297.02026"
     cy="317.83383"
     rx="17.5"
     ry="8.5"
     fill="#f1f1f1"
     id="ellipse10" />
  <ellipse
     cx="262.02026"
     cy="317.83383"
     rx="17.5"
     ry="8.5"
     fill="#f1f1f1"
     id="ellipse12" />
  <path
     d="m 105.61008,167.80098 a 8.00164,8.00164 0 0 0 6.79995,-10.21293 l 23.13873,-16.52765 -13.7895,-5.30973 -19.85885,16.509 a 8.045,8.045 0 0 0 3.70967,15.54134 z"
     fill="#ffb7b7"
     id="path14" />
  <path
     d="m 118.45607,156.9157 -7.676,-13.11025 0.163,-0.1859 30.97067,-35.25912 24.04642,-41.00781 20.88121,2.66137 0.3081,6.31172 -0.0624,0.0943 -33.17516,49.8699 -0.0353,0.0301 z"
     fill="#3f3d56"
     id="path16" />
  <path
     d="M 111.99042,167.31972 70.50251,190.80019 40.14116,137.15436 81.62907,113.6739 Z"
     fill="#e5e5e5"
     id="path18" />
  <rect
     x="-21.566135"
     y="156.33958"
     width="25.562651"
     height="4.3923101"
     transform="rotate(-29.50809)"
     fill="#6c63ff"
     id="rect20" />
  <rect
     x="-21.566135"
     y="167.75958"
     width="25.562651"
     height="4.3923101"
     transform="rotate(-29.50809)"
     fill="#6c63ff"
     id="rect22" />
  <rect
     x="-21.566139"
     y="179.17961"
     width="25.562651"
     height="4.3923101"
     transform="rotate(-29.50809)"
     fill="#6c63ff"
     id="rect24" />
  <polygon
     points="688.489,513.877 705.917,513.878 705.915,559.425 694.107,559.425 "
     fill="#ffb7b7"
     id="polygon26"
     transform="translate(-485.1322,-180.66305)" />
  <path
     d="m 223.79457,390.20885 -38.07617,-10e-4 v -0.4816 a 14.82108,14.82108 0 0 1 14.82031,-14.82007 h 9.4e-4 l 23.25562,9.4e-4 z"
     fill="#2f2e41"
     id="path28" />
  <polygon
     points="597.913,510.689 614.864,514.737 604.285,559.039 592.8,556.296 "
     fill="#ffb7b7"
     id="polygon30"
     transform="translate(-485.1322,-180.66305)" />
  <path
     d="m 119.42426,390.20885 -37.035,-8.84335 0.11183,-0.46844 a 14.82112,14.82112 0 0 1 17.85667,-10.9734 l 9.1e-4,2.2e-4 22.61969,5.40129 z"
     fill="#2f2e41"
     id="path32" />
  <path
     d="M 165.04681,46.52867 V 26.65162 a 26.6353,26.6353 0 1 1 53.27059,0 V 46.5287 a 3.58191,3.58191 0 0 1 -3.57787,3.57788 h -46.11484 a 3.58191,3.58191 0 0 1 -3.57788,-3.57791 z"
     fill="#2f2e41"
     id="path34" />
  <circle
     cx="185.10858"
     cy="30.276419"
     r="19.52807"
     fill="#ffb7b7"
     id="circle36" />
  <path
     d="M 158.74554,28.24175 A 21.09354,21.09354 0 0 1 179.81525,7.1720403 h 3.97565 A 21.09337,21.09337 0 0 1 204.86042,28.24175 v 0.39755 h -8.40137 l -2.86548,-8.02383 -0.573,8.02383 h -4.3419 l -1.44575,-4.04841 -0.28923,4.04841 h -28.19815 z"
     fill="#2f2e41"
     id="path38" />
  <path
     d="m 196.4992,133.34386 -49.7213,-1.89238 -2.77972,-32.52886 c -2.14364,-5.954 -2.17841,-11.06608 -0.10281,-15.19387 a 15.2086,15.2086 0 0 1 8.39652,-7.25725 l 10.87968,-13.14034 a 14.80868,14.80868 0 0 1 11.49838,-5.35951 l 28.26685,0.19325 c 0.68189,-0.40991 4.81453,-2.51025 12.96564,1.02309 8.8412,3.8329 6.78817,17.14443 6.76627,17.27816 l -0.0202,0.125 -0.0971,0.0822 -18.80327,15.83447 z"
     fill="#3f3d56"
     id="path40" />
  <polygon
     points="590.956,546.581 611.102,552.734 646.764,400.129 688.15,548.404 712.3,549.009 695.857,377.898 681.487,311.649 632.306,308.619 608.787,351.499 "
     fill="#2f2e41"
     id="polygon42"
     transform="translate(-485.1322,-180.66305)" />
  <path
     d="m 210.0089,197.37505 a 8.00163,8.00163 0 0 0 -0.42123,-12.26238 l 9.18182,-26.91205 -14.30159,3.71578 -6.52662,24.98647 a 8.045,8.045 0 0 0 12.06762,10.47218 z"
     fill="#ffb7b7"
     id="path44" />
  <path
     d="m 214.11037,181.04388 -13.87573,-6.18534 4.66241,-46.94574 -4.33893,-47.33893 18.52359,-9.99952 3.92669,4.95094 0.004,0.11234 2.08062,59.86074 -0.011,0.0455 z"
     fill="#3f3d56"
     id="path46" />
  <path
     d="M 382,392.01629 H 1 a 1,1 0 0 1 0,-2 h 381 a 1,1 0 0 1 0,2 z"
     fill="#cbcbcb"
     id="path64" />
</svg>
