<?xml version="1.0" encoding="UTF-8" standalone="no"?>
<svg
   viewBox="0 0 950.5 621.22833"
   version="1.1"
   id="svg142"
   xmlns="http://www.w3.org/2000/svg">
  <defs
     id="defs146" />
  <ellipse
     cx="129"
     cy="605.72833"
     rx="129"
     ry="15"
     fill="#e6e6e6"
     id="ellipse2" />
  <ellipse
     cx="821.5"
     cy="606.22833"
     rx="129"
     ry="15"
     fill="#e6e6e6"
     id="ellipse4" />
  <path
     d="M 938.69609,333.19066 H 11.819696 A 9.8211985,6.92409 0 0 1 2.0099707,326.27472 V 6.91595 A 9.8211985,6.92409 0 0 1 11.819696,-5e-5 H 938.69609 a 9.8211985,6.92409 0 0 1 9.80964,6.916 v 319.35877 a 9.8211843,6.92408 0 0 1 -9.80964,6.91594 z M 11.819696,2.76638 A 5.892217,4.1541 0 0 0 5.9339022,6.91595 v 319.35877 a 5.892217,4.1541 0 0 0 5.8857938,4.14956 H 938.69609 a 5.8922312,4.15411 0 0 0 5.8858,-4.14956 V 6.91595 a 5.8922312,4.15411 0 0 0 -5.8858,-4.14957 z"
     fill="#e6e6e6"
     id="path6"
     style="stroke-width:1.19097" />
  <path
     d="M301.75,517.11417l-3,13s1,30-7,27-6-29-6-29l7-13Z"
     transform="translate(-124.75 -139.38583)"
     fill="#ffb8b8"
     id="path94" />
  <circle
     cx="132.5"
     cy="215.22833"
     r="20"
     fill="#ffb8b8"
     id="circle96" />
  <path
     d="M241.75,360.11417l-2,29,25,3s0-24,2-27S241.75,360.11417,241.75,360.11417Z"
     transform="translate(-124.75 -139.38583)"
     fill="#ffb8b8"
     id="path98" />
  <path
     d="M297.19191,397.88014,264.7972,384.19505s-15.47946-11.9226-24.54586-3.08988l-4.069,5.82834S200.19458,400.965,200.2042,411.965l14.0481,54.98773s-7.97287,31.007,4.02887,32.99649l65.00522,5.94314s8.99038-11.00787.97813-25.00087l2.97114-33.00261Z"
     transform="translate(-124.75 -139.38583)"
     fill="#e6e6e6"
     id="path100" />
  <path
     d="M275.1928,398.89939l21.99911-1.01925s7.00175,1.99388,12.01837,20.9895,6.04374,49.99473,6.04374,49.99473l-11.951,56.01048L288.30126,522.888l5.95276-54.00523L284.22254,432.8915Z"
     transform="translate(-124.75 -139.38583)"
     fill="#e6e6e6"
     id="path102" />
  <path
     d="M212.19807,404.9545l-10.8435,3.38753s-9.14162,13.63-9.1355,20.62995-3.94751,60.00348-3.94751,60.00348l26.0376,42.97724,7.98163-21.007-16.02361-26.986,12.97113-33.01136Z"
     transform="translate(-124.75 -139.38583)"
     fill="#e6e6e6"
     id="path104" />
  <path
     d="M286.25,503.61417l-71.8968-6.32585s-7.1032,45.32585-6.1032,63.32585,2,46,2,46l-8,122,31-4,4-101,13-55,15,70,10,90,27-3-9-109S301.25,518.61417,286.25,503.61417Z"
     transform="translate(-124.75 -139.38583)"
     fill="#2f2e41"
     id="path106" />
  <path
     d="M296.25,720.61417l9,3s19-5,14,8-19,11-19,11-17,13-24,3l4-21Z"
     transform="translate(-124.75 -139.38583)"
     fill="#2f2e41"
     id="path108" />
  <path
     d="M223.25,720.61417l9,3s19-5,14,8-19,11-19,11-17,13-24,3l4-21Z"
     transform="translate(-124.75 -139.38583)"
     fill="#2f2e41"
     id="path110" />
  <path
     d="M241.75,372.11417s-21-15-10-33c7.63118-12.48738,23.44411-11.49893,32.414-9.72226a15.154,15.154,0,0,1,11.086,8.72226c1.5,3.5,1.5,7-4.5,7-12,0-6,9-6,9s-8,2-6,9S241.75,372.11417,241.75,372.11417Z"
     transform="translate(-124.75 -139.38583)"
     fill="#2f2e41"
     id="path112" />
  <path
     d="M960.57123,723.33886s-22.17658,1.70589-19.90205,9.66671,19.90205,6.82356,19.90205,6.82356,13.64712-1.13726,21.03931,1.13726,15.92165,0,16.49028-3.98041-3.98041-6.82356-3.98041-6.82356l-2.84315-5.6863Z"
     transform="translate(-124.75 -139.38583)"
     fill="#2f2e41"
     id="path114" />
  <path
     d="M902.28664,545.64194,900.01212,554.74s-10.23534,21.03932,2.27452,21.03932,7.96082-19.33343,7.96082-19.33343l1.13726-9.09808Z"
     transform="translate(-124.75 -139.38583)"
     fill="#9f616a"
     id="path116" />
  <path
     d="M1012.03226,538.24975l2.27452,9.09808s10.23534,21.03932-2.27452,21.03932-7.96083-19.33343-7.96083-19.33343l-1.13726-9.09808Z"
     transform="translate(-124.75 -139.38583)"
     fill="#9f616a"
     id="path118" />
  <circle
     cx="828.14472"
     cy="219.74543"
     r="24.4511"
     fill="#9f616a"
     id="circle120" />
  <path
     d="M945.50253,377.89605s2.84315,13.0785,1.13726,19.33343,35.25507-1.13726,35.25507-1.13726-13.07849-21.608-12.50986-22.17658Z"
     transform="translate(-124.75 -139.38583)"
     fill="#9f616a"
     id="path122" />
  <path
     d="M951.12618,392.37438s-10.23782-2.8342-13.64662.58056-23.30239,13.09889-23.30239,13.09889l13.72024,83.57665,59.12607-13.13022,10.1662-79.04851s-16.13328-9.4414-18.8731-7.5544S951.12618,392.37438,951.12618,392.37438Z"
     transform="translate(-124.75 -139.38583)"
     fill="#e6e6e6"
     id="path124" />
  <path
     d="M918.72671,406.61848l-2.73053-1.46134s-10.34746,2.04141-9.77187,10.00173,2.88892,52.31146,2.88892,52.31146l-9.028,80.18478,16.49276,2.82872,16.43157-67.11275Z"
     transform="translate(-124.75 -139.38583)"
     fill="#e6e6e6"
     id="path126" />
  <path
     d="M995.48528,399.15914l2.728-1.46611s10.351,2.0233,9.78935,9.98461-2.79739,52.31644-2.79739,52.31644l9.16822,80.16886-16.48778,2.85757-16.549-67.0839Z"
     transform="translate(-124.75 -139.38583)"
     fill="#e6e6e6"
     id="path128" />
  <path
     d="M928.44363,481.38674l-2.27452,34.68644-7.39219,69.37287,10.804,143.86342,37.52959,1.13726L955.73787,593.40687l11.37261-47.1963,37.17363-1.3768s2.63047-54.34895-18.40884-71.40785Z"
     transform="translate(-124.75 -139.38583)"
     fill="#2f2e41"
     id="path130" />
  <polygon
     points="844.635 398.864 838.664 524.247 836.674 587.649 870.223 591.061 878.688 404.602 865.674 391.472 844.635 398.864"
     fill="#2f2e41"
     id="polygon132" />
  <path
     d="M963.6987,326.71934s-22.17658-2.84315-28.43151,7.96082c0,0-1.70589,7.96083-7.39219,10.804s1.13726,12.50986,2.84315,15.353,6.25493,19.33343,1.13726,23.31384,9.09808,15.353,9.09808,15.353,6.82356,9.09808,1.13726,15.92164,7.39219,9.09808,7.39219,9.09808-2.84315,19.33343,2.27452,14.21576c0,0,2.27452,43.78452,23.88247,16.49027s30.706-40.37274,21.60794-51.17671-2.27452-20.47068-2.27452-20.47068,2.84315-5.68631-3.41178-14.21576S985.30664,326.71934,963.6987,326.71934Z"
     transform="translate(-124.75 -139.38583)"
     fill="#2f2e41"
     id="path134" />
  <path
     d="M931.57109,726.75064s-22.17657,1.70589-19.90205,9.66671,19.90205,6.82356,19.90205,6.82356,13.64713-1.13726,21.03932,1.13726,15.92164,0,16.49027-3.98041-3.98041-6.82356-3.98041-6.82356l-2.84315-5.6863Z"
     transform="translate(-124.75 -139.38583)"
     fill="#2f2e41"
     id="path136" />
</svg>
