<?xml version="1.0" encoding="UTF-8" standalone="no"?>
<svg
   id="a928d488-6e6c-46d7-ac2c-f12f8bd647b3"
   data-name="Layer 1"
   width="780"
   height="780"
   viewBox="0 0 780 780"
   version="1.1"
   sodipodi:docname="logo.svg"
   inkscape:export-filename="/home/user/Downloads/logo512.png"
   inkscape:export-xdpi="63.015385"
   inkscape:export-ydpi="63.015385"
   inkscape:version="1.1 (c4e8f9ed74, 2021-05-24)"
   xmlns:inkscape="http://www.inkscape.org/namespaces/inkscape"
   xmlns:sodipodi="http://sodipodi.sourceforge.net/DTD/sodipodi-0.dtd"
   xmlns="http://www.w3.org/2000/svg"
   xmlns:svg="http://www.w3.org/2000/svg"
   xmlns:rdf="http://www.w3.org/1999/02/22-rdf-syntax-ns#"
   xmlns:cc="http://creativecommons.org/ns#"
   xmlns:dc="http://purl.org/dc/elements/1.1/">
  <defs
     id="defs109">
    <marker
       style="overflow:visible"
       id="Arrow1Mstart"
       refX="0.0"
       refY="0.0"
       orient="auto"
       inkscape:stockid="Arrow1Mstart"
       inkscape:isstock="true">
      <path
         transform="scale(0.4) translate(10,0)"
         style="fill-rule:evenodd;fill:context-stroke;stroke:context-stroke;stroke-width:1.0pt"
         d="M 0.0,0.0 L 5.0,-5.0 L -12.5,0.0 L 5.0,5.0 L 0.0,0.0 z "
         id="path71090" />
    </marker>
  </defs>
  <sodipodi:namedview
     id="namedview107"
     pagecolor="#ffffff"
     bordercolor="#666666"
     borderopacity="1.0"
     inkscape:pageshadow="2"
     inkscape:pageopacity="0.0"
     inkscape:pagecheckerboard="0"
     showgrid="false"
     inkscape:zoom="0.95946252"
     inkscape:cx="134.86535"
     inkscape:cy="390.85681"
     inkscape:window-width="2560"
     inkscape:window-height="1002"
     inkscape:window-x="0"
     inkscape:window-y="0"
     inkscape:window-maximized="1"
     inkscape:current-layer="a928d488-6e6c-46d7-ac2c-f12f8bd647b3"
     height="780px" />
  <title
     id="title2">playing cards</title>
  <path
     d="m 599.30078,700.5292 a 50.16694,50.16694 0 0 1 -13.54492,-1.87109 l -183.02441,-48.98926 0.5371,-1.92578 183.02637,48.98926 a 48.16143,48.16143 0 0 0 13.00586,1.79687 c 21.53906,0 40.64258,-12.48047 46.45606,-33.21386 L 776.043,200.69668 h -10e-4 l 0.2842,-1.01123 a 48.28977,48.28977 0 0 0 -33.4297,-59.4126 L 448.7041,57.777251 a 48.29038,48.29038 0 0 0 -59.46094,33.4165 l -10.22168,36.459999 -1.92578,-0.54 10.22168,-36.459999 a 50.29063,50.29063 0 0 1 61.92676,-34.80224 L 743.4365,138.34711 a 50.29149,50.29149 0 0 1 35.0625,60.96143 l 0.01,0.002 -0.2695,0.96289 -130.55568,465.5815 c -6.05469,21.59278 -25.9502,34.67383 -48.38184,34.67383 z"
     fill="#2f2e41"
     id="path4"
     inkscape:export-filename="/home/user/Downloads/favico.png"
     inkscape:export-xdpi="96"
     inkscape:export-ydpi="96"
     style="stroke:#000000;stroke-opacity:1" />
  <path
     d="m 415.25,174.53596 a 116.74372,116.74372 0 0 0 -11.25,5.61 c -0.67,0.38 -1.34,0.77 -2,1.16 v -12.37 a 46.801,46.801 0 0 0 -1.87,-13.15 c 0.58,-0.36 1.17,-0.75 1.75,-1.14 0.53,-0.35 1.07,-0.71 1.6,-1.07 a 134.73634,134.73634 0 0 0 11.77,20.96 z"
     fill="#6c63ff"
     id="path8"
     inkscape:export-filename="/home/user/Downloads/favico.png"
     inkscape:export-xdpi="96"
     inkscape:export-ydpi="96" />
  <path
     d="m 617.79235,589.74749 a 110.09112,110.09112 0 0 0 20.45962,-11.49818 169.04888,169.04888 0 0 0 11.77863,20.95862 125.77733,125.77733 0 0 0 -20.45963,11.49819 135.22416,135.22416 0 0 0 -11.77862,-20.95863 z"
     fill="#6c63ff"
     id="path12"
     inkscape:export-filename="/home/user/Downloads/favico.png"
     inkscape:export-xdpi="96"
     inkscape:export-ydpi="96" />
  <path
     d="m 482.397,382.43196 c 0,0 -5.05855,32.85439 -6.56141,34.51011 -1.50286,1.65572 10.50007,40.333 10.50007,40.333 l 38.48867,-22.44154 c 0,0 7.48855,-41.52013 9.95427,-42.90585 2.46572,-1.38572 -52.3816,-9.49572 -52.3816,-9.49572 z"
     fill="#ffb8b8"
     id="path14"
     inkscape:export-filename="/home/user/Downloads/favico.png"
     inkscape:export-xdpi="96"
     inkscape:export-ydpi="96" />
  <path
     d="m 482.397,382.43196 c 0,0 -5.05855,32.85439 -6.56141,34.51011 -1.50286,1.65572 10.50007,40.333 10.50007,40.333 l 38.48867,-22.44154 c 0,0 7.48855,-41.52013 9.95427,-42.90585 2.46572,-1.38572 -52.3816,-9.49572 -52.3816,-9.49572 z"
     opacity="0.1"
     id="path16"
     inkscape:export-filename="/home/user/Downloads/favico.png"
     inkscape:export-xdpi="96"
     inkscape:export-ydpi="96" />
  <circle
     cx="512.17419"
     cy="376.24188"
     fill="#ffb8b8"
     id="circle18"
     inkscape:export-filename="/home/user/Downloads/favico.png"
     inkscape:export-xdpi="96"
     inkscape:export-ydpi="96"
     r="38" />
  <path
     d="m 495.7042,434.97635 -3.31144,-3.00572 -14.8847,-21.18423 c 0,0 -1.70823,-1.12439 -3.32823,4.65277 l -1.62,5.77716 -13.98432,5.42575 -30.94282,132.569 82.806,23.22 34.1014,-132.72187 -16.01721,-16.95432 -1.77345,-8.1795 -24.72806,10.09525 z"
     fill="#ffffff"
     id="path20"
     inkscape:export-filename="/home/user/Downloads/favico.png"
     inkscape:export-xdpi="96"
     inkscape:export-ydpi="96" />
  <path
     d="m 402,572.79596 2,0.56 128.96,36.16 43.12,-142.65 c 0,0 -10.2,-8.06 -18.18,-9.26 0,0 -13.4,-15.18 -19.17,-16.8 -5.78,-1.62 -12.17,-15.87 -12.17,-15.87 0,0 -6.75,24.07 -18.35,39.51 -11.6,15.44 -31.8,68.98 -31.8,68.98 l -5.7,-98.19 6.4,-24.69 a 45.464,45.464 0 0 0 -10.06,8.09 c -4.51,4.96 -16.02,9 -16.02,9 0,0 -30.32,8.12 -35.68,8.7 -5.35,0.57 -7.82,1.96 -7.82,1.96 l -3.53,24.29 -2,13.76 z"
     fill="#2f2e41"
     id="path22"
     inkscape:export-filename="/home/user/Downloads/favico.png"
     inkscape:export-xdpi="96"
     inkscape:export-ydpi="96" />
  <path
     d="m 419.6,517.49596 c -1.2,7.97 -13.54,40.86 -13.54,40.86 l -2.06,2.07 -2,2.01 v -121.81 a 5.61755,5.61755 0 0 1 2,-1.39 13.71966,13.71966 0 0 1 3.53,-0.94 l 3.86,1.08 c 0,0 9.41,70.14 8.21,78.12 z"
     fill="#2f2e41"
     id="path24"
     inkscape:export-filename="/home/user/Downloads/favico.png"
     inkscape:export-xdpi="96"
     inkscape:export-ydpi="96" />
  <path
     d="m 507.44293,559.78101 c 0,0 18.92574,-34.1587 33.25151,-25.98726 14.32577,8.17144 -8.64,30.81153 -8.64,30.81153 z"
     fill="#ffb8b8"
     id="path26"
     inkscape:export-filename="/home/user/Downloads/favico.png"
     inkscape:export-xdpi="96"
     inkscape:export-ydpi="96" />
  <path
     d="m 448.86131,546.4696 c 0,0 -36.31869,-11.22286 -37.12869,-8.33428 -0.81,2.88858 -10.7543,19.83293 -7.86572,20.64293 2.88858,0.81 25.30437,6.05714 25.03437,7.02 -0.27,0.96286 10.74432,6.12858 10.74432,6.12858 z"
     fill="#ffb8b8"
     id="path28"
     inkscape:export-filename="/home/user/Downloads/favico.png"
     inkscape:export-xdpi="96"
     inkscape:export-ydpi="96" />
  <polygon
     points="600.963,371.253 594.58,390.355 618.886,388.862 623.7,390.212 643.686,404.125 648.165,384.489 625.05,385.398 620.236,384.048 "
     fill="#6c63ff"
     id="polygon30"
     transform="translate(-128.5,53.969941)"
     inkscape:export-filename="/home/user/Downloads/favico.png"
     inkscape:export-xdpi="96"
     inkscape:export-ydpi="96" />
  <polygon
     points="586.05,528.176 582.5,535.736 531.5,521.736 530.5,518.826 530.5,502.796 532.5,503.576 534.56,504.386 "
     fill="#2f2e41"
     id="polygon32"
     transform="translate(-128.5,53.969941)"
     inkscape:export-filename="/home/user/Downloads/favico.png"
     inkscape:export-xdpi="96"
     inkscape:export-ydpi="96" />
  <path
     d="m 459.45278,549.4396 c 0,0 -11.97719,-5.43572 -12.24719,-4.47286 -0.27,0.96286 -16.34288,28.65153 -12.49144,29.73153 3.85144,1.08 17.48435,8.01858 17.48435,8.01858 z"
     fill="#ffffff"
     id="path34"
     inkscape:export-filename="/home/user/Downloads/favico.png"
     inkscape:export-xdpi="96"
     inkscape:export-ydpi="96" />
  <path
     d="m 569.34017,464.97208 6.74,1.89 c 0,0 3.85144,1.08 4.15716,7.39716 0.30572,6.31716 5.53292,35.82439 3.06719,37.21011 -2.46573,1.38572 -3.15858,0.15287 -1.77286,2.61859 1.38572,2.46572 2.61859,1.77286 1.11573,3.42858 -1.50286,1.65572 -4.95139,54.69444 -16.12853,72.33166 -11.17714,17.63722 -14.57,26.033 -18.42146,24.953 L 448.267,586.80725 c 0,0 4.44578,-39.25765 8.56722,-39.14051 4.12144,0.11714 71.63878,14.89568 71.63878,14.89568 0,0 26.15426,-100.67746 40.86717,-97.59034 z"
     fill="#2f2e41"
     id="path36"
     inkscape:export-filename="/home/user/Downloads/favico.png"
     inkscape:export-xdpi="96"
     inkscape:export-ydpi="96" />
  <path
     d="m 489.78487,334.59238 -6.2345,-4.47128 c 0,0 18.58634,-10.44541 38.42854,-3.51981 l -4.08748,-7.273 c 0,0 15.30057,-1.15548 24.20663,15.63767 4.68172,8.82778 10.06253,19.17007 12.26158,29.73748 l 7.43484,2.08484 -4.84329,5.33591 9.12032,9.25151 -10.83473,-4.24064 a 32.524,32.524 0 0 1 -5.56145,15.77732 l -4.47115,6.23443 c 0,0 -4.43484,-23.02763 -3.72693,-25.55215 l -1.76976,6.31126 c 0,0 -5.34963,-7.62685 -4.28778,-11.41359 l -5.02557,3.356 0.0534,-7.47333 -25.2984,0.39427 5.37951,-4.61825 -15.0468,-2.17709 7.627,-5.34958 c 0,0 -18.70994,3.60324 -21.28794,10.36864 -2.57778,6.76535 -13.26,13.30046 -13.26,13.30046 l -2.017,-7.37311 c 0,0 2.28373,-29.99344 23.24098,-34.32796 z"
     fill="#2f2e41"
     id="path38"
     inkscape:export-filename="/home/user/Downloads/favico.png"
     inkscape:export-xdpi="96"
     inkscape:export-ydpi="96" />
  <path
     d="m 476.72085,348.26317 0.29721,-1.295 c 2.88968,-12.58007 -19.33835,-35.97544 -19.563,-36.21036 l -0.39466,-0.41189 0.15412,-0.5496 c 0.4398,-1.56841 2.20365,-2.96129 17.65926,0.38888 6.01774,1.30459 12.01884,2.89458 14.53112,3.57624 -0.28052,-7.18284 -9.18474,-16.6997 -9.27973,-16.80038 l -1.12008,-1.18683 1.566,-0.45948 c 10.26547,-3.009 22.28032,6.97086 26.12019,10.50459 l 6.41856,-22.88956 12.70134,18.76039 c 7.79712,-11.67253 19.07562,-11.19961 19.56853,-11.17245 l 1.58331,0.0865 -0.76052,1.39178 c -5.34317,9.77538 -6.30593,16.19629 -6.36142,19.36186 14.21594,-16.889 27.027,-15.41792 27.58441,-15.34426 l 1.94137,0.25634 -1.34612,1.42228 c -18.61059,19.665 -20.802,45.60606 -20.82209,45.86566 l -0.0671,0.8742 z M 459.67,310.19736 c 3.93,4.25933 20.92405,23.481 19.51633,35.92848 l 66.10992,-3.5964 c 0.54512,-4.62771 3.89789,-26.64821 19.70494,-44.50036 -4.30785,0.38486 -14.4698,2.84024 -25.17507,16.52141 l -1.22716,1.56771 -0.525,-1.92009 c -0.0825,-0.30256 -1.87214,-7.33553 5.55265,-21.62269 -3.40377,0.32194 -11.32864,2.10388 -16.92936,11.45408 l -0.80644,1.34592 -12.01971,-17.7533 -6.16913,22 -1.20991,-1.22616 c -0.13508,-0.13677 -13.03108,-13.04892 -23.75367,-11.5094 2.75251,3.205 9.33808,11.6462 8.6167,18.28236 l -0.12732,1.17377 -1.13681,-0.31878 c -12.62814,-3.54114 -27.05158,-6.56283 -30.42096,-5.82655 z"
     fill="#6c63ff"
     id="path40"
     inkscape:export-filename="/home/user/Downloads/favico.png"
     inkscape:export-xdpi="96"
     inkscape:export-ydpi="96" />
  <path
     d="m 572.40847,290.74533 a 3.58691,3.58691 0 1 1 4.42216,-2.48523 3.59071,3.59071 0 0 1 -4.42216,2.48523 z m 1.39693,-4.98167 a 1.58691,1.58691 0 1 0 1.09951,1.95644 1.58875,1.58875 0 0 0 -1.09951,-1.95644 z"
     fill="#6c63ff"
     id="path42"
     inkscape:export-filename="/home/user/Downloads/favico.png"
     inkscape:export-xdpi="96"
     inkscape:export-ydpi="96" />
  <path
     d="m 547.49963,283.76054 a 3.58692,3.58692 0 1 1 4.42216,-2.48524 3.59074,3.59074 0 0 1 -4.42216,2.48524 z m 1.39693,-4.98168 a 1.58692,1.58692 0 1 0 1.09951,1.95645 1.58875,1.58875 0 0 0 -1.09951,-1.95645 z"
     fill="#6c63ff"
     id="path44"
     inkscape:export-filename="/home/user/Downloads/favico.png"
     inkscape:export-xdpi="96"
     inkscape:export-ydpi="96" />
  <path
     d="m 509.63572,279.8602 a 3.58691,3.58691 0 1 1 4.42216,-2.48523 3.59072,3.59072 0 0 1 -4.42216,2.48523 z m 1.39693,-4.98167 a 1.58691,1.58691 0 1 0 1.09951,1.95644 1.58875,1.58875 0 0 0 -1.09951,-1.95644 z"
     fill="#6c63ff"
     id="path46"
     inkscape:export-filename="/home/user/Downloads/favico.png"
     inkscape:export-xdpi="96"
     inkscape:export-ydpi="96" />
  <path
     d="m 449.1894,308.58454 a 3.58691,3.58691 0 1 1 4.42216,-2.48523 3.59071,3.59071 0 0 1 -4.42216,2.48523 z m 1.39693,-4.98167 a 1.58691,1.58691 0 1 0 1.09951,1.95644 1.58875,1.58875 0 0 0 -1.09951,-1.95644 z"
     fill="#6c63ff"
     id="path48"
     inkscape:export-filename="/home/user/Downloads/favico.png"
     inkscape:export-xdpi="96"
     inkscape:export-ydpi="96" />
  <path
     d="m 472.56282,292.30136 a 3.58692,3.58692 0 1 1 4.42217,-2.48523 3.59115,3.59115 0 0 1 -4.42217,2.48523 z m 1.39694,-4.98168 a 1.58692,1.58692 0 1 0 1.09951,1.95645 1.58886,1.58886 0 0 0 -1.09951,-1.95645 z"
     fill="#6c63ff"
     id="path50"
     inkscape:export-filename="/home/user/Downloads/favico.png"
     inkscape:export-xdpi="96"
     inkscape:export-ydpi="96" />
  <polygon
     points="571.728,73.414 572.689,73.684 839.883,148.609 839.613,149.571 720.272,575.155 719.31,574.885 530.809,522.027 531.348,520.101 718.887,572.69 837.418,149.994 573.112,75.88 532.799,219.645 530.873,219.105 "
     fill="#2f2e41"
     id="polygon52"
     transform="translate(-128.5,53.969941)"
     inkscape:export-filename="/home/user/Downloads/favico.png"
     inkscape:export-xdpi="96"
     inkscape:export-ydpi="96"
     style="stroke:#000000;stroke-opacity:1" />
  <path
     d="m 401.88,154.64596 a 49.004,49.004 0 0 0 -8.07,-15.67 49.78347,49.78347 0 0 0 -4.17,-4.77 49.1065,49.1065 0 0 0 -34.87,-14.5 H 49.23 A 49.28,49.28 0 0 0 0,168.93596 v 483.54 a 49.28,49.28 0 0 0 49.23,49.23 h 305.54 a 49.28,49.28 0 0 0 49.23,-49.23 v -483.54 a 48.87057,48.87057 0 0 0 -2.12,-14.29 z m 0.12,497.83 a 47.287,47.287 0 0 1 -47.23,47.23 H 49.23 A 47.287,47.287 0 0 1 2,652.47596 v -483.54 a 47.287,47.287 0 0 1 47.23,-47.23 h 305.54 a 47.1127,47.1127 0 0 1 34.25,14.74 q 0.735,0.78 1.44,1.59 a 47.12039,47.12039 0 0 1 11.54,30.9 z"
     fill="#2f2e41"
     id="path58"
     inkscape:export-filename="/home/user/Downloads/favico.png"
     inkscape:export-xdpi="96"
     inkscape:export-ydpi="96"
     style="mix-blend-mode:normal;marker-start:url(#Arrow1Mstart);paint-order:stroke markers fill;stroke:#000000;stroke-opacity:1" />
  <path
     d="m 371.16464,598.10687 a 8.01387,8.01387 0 0 0 11.33333,-11.33329 l -11.33333,-11.33337 -11.33333,11.33337 a 8.01387,8.01387 0 0 0 11.33333,11.33329 z"
     fill="#6c63ff"
     id="path66"
     inkscape:export-filename="/home/user/Downloads/favico.png"
     inkscape:export-xdpi="96"
     inkscape:export-ydpi="96" />
  <path
     d="m 226.64587,394.41711 c -13.61413,-23.00368 -40.54861,-24.07575 -40.54861,-24.07575 0,0 -26.24611,-3.35633 -43.08283,31.67855 -15.69316,32.65539 -37.35172,64.18483 -3.48685,71.82921 l 6.117,-19.03877 3.78821,20.45619 a 132.50656,132.50656 0 0 0 14.48952,0.24764 c 36.26655,-1.1709 70.805,0.34257 69.69287,-12.67139 -1.47835,-17.30022 6.13022,-46.29155 -6.96931,-68.42568 z"
     fill="#2f2e41"
     id="path68"
     inkscape:export-filename="/home/user/Downloads/favico.png"
     inkscape:export-xdpi="96"
     inkscape:export-ydpi="96" />
  <path
     d="m 176.42215,472.79304 c 0.0659,2.58925 0.0462,5.32 -1.2405,7.56794 -2.55068,4.45626 -8.77746,5.12336 -12.52288,8.63562 -3.93886,3.69364 -4.38469,9.68822 -4.57241,15.08473 -0.19626,5.642 -0.36277,11.469 1.6963,16.7255 a 40.65962,40.65962 0 0 0 4.75034,8.16113 q 3.43009,4.94445 6.92363,9.84448 a 42.50313,42.50313 0 0 0 4.14572,5.20265 c 4.17109,4.24877 9.89244,6.60062 15.60508,8.27864 3.6909,1.08416 7.67613,1.92868 11.3382,0.7508 a 21.70662,21.70662 0 0 0 6.59342,-4.05429 c 2.72367,-2.163 5.48919,-4.37013 7.46327,-7.23368 3.07515,-4.46076 3.9263,-10.045 4.56372,-15.42537 a 332.8629,332.8629 0 0 0 2.19408,-47.95141 11.75257,11.75257 0 0 0 -0.91547,-5.09484 c -1.89659,-3.70333 -6.97627,-4.49394 -9.65283,-7.6795 -2.28838,-2.72357 -2.38171,-6.61049 -2.36218,-10.16775 l 0.0497,-9.056 a 3.79376,3.79376 0 0 0 -0.44011,-2.20632 3.73782,3.73782 0 0 0 -2.59772,-1.212 87.5709,87.5709 0 0 0 -17.03739,-1.13982 c -4.62344,0.14128 -13.49452,-0.24571 -17.49227,2.3294 -3.62874,2.33741 0.91468,8.79312 1.75522,12.4194 a 80.91135,80.91135 0 0 1 1.75508,16.22069 z"
     fill="#a0616a"
     id="path70"
     inkscape:export-filename="/home/user/Downloads/favico.png"
     inkscape:export-xdpi="96"
     inkscape:export-ydpi="96" />
  <circle
     cx="187.03427"
     cy="420.63821"
     fill="#a0616a"
     id="circle72"
     inkscape:export-filename="/home/user/Downloads/favico.png"
     inkscape:export-xdpi="96"
     inkscape:export-ydpi="96"
     r="36.603561" />
  <path
     d="m 171.9618,511.30276 a 53.54739,53.54739 0 0 1 -5.70845,-11.0871 c -1.309,-3.956 -1.65238,-8.37707 -0.0994,-12.24377 -3.95536,-2.29515 -9.32568,-0.43652 -12.20618,3.11528 -2.8805,3.5518 -3.76206,8.31289 -4.016,12.87886 -0.25394,4.56597 0.0152,9.19913 -0.9784,13.6629 -2.19838,9.87576 -10.35606,17.99484 -10.9627,28.09413 -0.59681,9.93558 6.21635,18.59093 9.56811,27.9631 a 46.63021,46.63021 0 0 1 2.49807,18.20141 c -0.1086,1.99268 -0.23372,4.2638 1.17235,5.68 a 6.47817,6.47817 0 0 0 2.53351,1.365 c 16.17372,5.69027 33.6437,6.18254 50.78371,6.61669 l 28.30959,0.71707 a 9.02291,9.02291 0 0 0 4.99916,-0.83715 c 2.53981,-1.55726 2.87974,-5.04794 2.92292,-8.02684 0.37188,-25.65639 -0.71942,-51.30895 -1.81047,-76.94483 -0.39546,-9.29189 -0.79763,-18.63767 -2.768,-27.72684 -0.50174,-2.31446 -1.32449,-4.88824 -3.46107,-5.90975 -1.8085,-0.86464 -3.95412,-0.30484 -5.83455,0.38962 a 46.4571,46.4571 0 0 0 -21.758,16.749 c -5.80877,8.26728 -8.66611,18.18454 -14.351,26.51457 -4.12547,6.045 -6.51143,0.77665 -9.26012,-3.675 q -4.78479,-7.74933 -9.57309,-15.49635 z"
     fill="#ffffff"
     id="path74"
     inkscape:export-filename="/home/user/Downloads/favico.png"
     inkscape:export-xdpi="96"
     inkscape:export-ydpi="96" />
  <path
     d="m 167.58,488.60456 c -0.72,0.51 -1.43,1.05 -2.11005,1.62 a 40.84911,40.84911 0 0 0 -6.8,7.16 56.72208,56.72208 0 0 0 -7.7,14.53 c -3.32,9.1 -4.76,18.76 -6.13995,28.34 a 68.39774,68.39774 0 0 0 -0.97,10.68 c 0.21,13.16 7.99,25.35 8,38.52 0,0.5 -0.01,0.99 -0.04,1.49 a 43.26068,43.26068 0 0 1 -0.76,6.42 c -0.57,3.09 -1.39,6.14 -2.2,9.18 -2.04,7.62 -4.24,15.52 -8.22,22.21 -0.4,0.68 -0.83,1.35 -1.27,2 h -28 c 0.22,-0.67 0.45,-1.33 0.67,-2 q 7.155,-21.195 14.30005,-42.38 c 1.46,-4.32 2.92,-8.66 3.95,-13.1 a 124.07457,124.07457 0 0 0 2.41,-16.63 q 1.65,-17.385 2.17,-34.84 c 0.13,-4.18 0.22,-8.45 1.57,-12.41 a 40.59828,40.59828 0 0 1 4.98,-9.08 q 4.335,-6.52506 8.67005,-13.05 c 1.61,-2.42 3.3,-4.91 5.78,-6.42 2.07,-1.27 4.53,-1.73 6.71,-2.8 a 34.31183,34.31183 0 0 0 3.94,-2.61 c 3.26,-2.31 7.09,-4.74 9.9,-2.38 a 5.51383,5.51383 0 0 1 1.16,1.33 6.69111,6.69111 0 0 1 0.43,0.77 c 2.6999,5.84002 -6.8001,10.88 -10.4301,13.45 z"
     fill="#2f2e41"
     id="path76"
     inkscape:export-filename="/home/user/Downloads/favico.png"
     inkscape:export-xdpi="96"
     inkscape:export-ydpi="96" />
  <path
     d="M 259.82,630.75459 H 130.14 c 0.7,-0.64 1.39,-1.31 2.06,-2 0.1,-0.1 0.19,-0.2 0.29,-0.3 4.96,-5.15 6.09,-11.48 8.58,-18.18005 q 2.805,-7.575 5.61,-15.14 a 7.83143,7.83143 0 0 1 1.43,-2.69 4.43654,4.43654 0 0 1 1.97,-1.18 7.642,7.642 0 0 1 1.74,-0.32 19.40735,19.40735 0 0 1 2.53,0 q 34.905,1.8 69.76,4.39 4.5,0.34506 9,0.69 c 2.45,1.82 4.87,3.75 7.18,5.79 7.51,6.6 14.02,14.37 17.75,23.55 0.45,1.11 0.86,2.24 1.2,3.39 0.22,0.66002 0.41,1.33001 0.58,2.00005 z"
     fill="#2f2e41"
     id="path78"
     inkscape:export-filename="/home/user/Downloads/favico.png"
     inkscape:export-xdpi="96"
     inkscape:export-ydpi="96" />
  <polygon
     points="285.77,329.993 278.167,363.573 297.093,362.845 302.38,350.508 302.38,362.641 311.113,362.305 316.181,342.665 319.349,363.573 350.394,362.939 349.127,338.23 322.517,324.291 "
     fill="#2f2e41"
     id="polygon80"
     transform="translate(-128.5,53.969941)"
     inkscape:export-filename="/home/user/Downloads/favico.png"
     inkscape:export-xdpi="96"
     inkscape:export-ydpi="96" />
  <path
     d="m 259.82,630.75459 h -29.28 c -0.21,-0.66 -0.41,-1.33 -0.6,-2 a 157.25975,157.25975 0 0 1 -4.54,-22.68 c -0.31,-2.19 -0.58,-4.39 -0.83,-6.58 -0.16,-1.39 -0.31,-2.77 -0.46,-4.16 -1.68,-15.44 -2.97,-31.03 -7.69,-45.81 -0.57,-1.79 -1.19,-3.57 -1.79,-5.35 a 63.09619,63.09619 0 0 1 -2.6,-9.41 c -1.28,-7.32 -0.32,-14.9 -1.64,-22.21 -0.74,-4.08 -2.21,-7.67 -3.1,-11.41 a 23.10828,23.10828 0 0 1 -0.66,-6.91 14.88177,14.88177 0 0 1 7.79,-3.86 c 1.01,-0.17 2.15,-0.3 2.76,-1.11 a 3.464,3.464 0 0 0 0.46,-2.04 97.95682,97.95682 0 0 0 -0.81,-14.11 c -0.2,-1.64 -0.45,-3.28 -0.75,-4.91 -0.01,-0.08 -0.03,-0.15 -0.04,-0.23 2.44,-1.06 5.19,-1.07 7.84,-1.06 2.89,0.01 5.77,0.01 8.65,0.02 q 7.995,0.03 15.99,0.05 c 4.96,0.01 10.09,0.06 14.6,2.11 4.66,2.13 8.2,6.24 10.54,10.8 2.34,4.56 3.61,9.58 4.76,14.57 a 19.51973,19.51973 0 0 1 0.5,4.21 c 0.22,11.26 -8.18,22.6 -9.02,34.11 -0.27,3.73 0.04,7.49 -0.3,11.22 -0.34,3.74 -1.34,7.4 -1.52,11.14 -0.01,0.19 -0.02,0.39 -0.02,0.58 -0.11,4.87 1.31,9.64 2.95,14.23 2.54,7.13 5.63,14.04 8.82,20.91 3.08,6.65 6.24,13.27 9.08,20.01 a 34.26306,34.26306 0 0 1 2.95,9.89 13.72406,13.72406 0 0 1 -1.51,7.99 9.3757,9.3757 0 0 1 -1.19,1.69 l -0.02,0.02 c -0.09,0.1 -0.18,0.2 -0.27,0.29 z"
     fill="#2f2e41"
     id="path82"
     inkscape:export-filename="/home/user/Downloads/favico.png"
     inkscape:export-xdpi="96"
     inkscape:export-ydpi="96" />
  <path
     d="m 287.71,620.49458 a 11.082,11.082 0 0 1 -1.07,3.83 c -0.05,0.12 -0.1,0.23 -0.15,0.35 -0.58,1.37 -1.17,2.72 -1.78,4.08 -0.3,0.66 -0.6,1.33 -0.91,2 h -16.56 a 18.53555,18.53555 0 0 0 1.66,-2 c 2.54,-3.53 4.01,-7.82 6.6,-11.63 a 8.9538,8.9538 0 0 1 1.21,-1.44 c 4.15,-4.02002 11.26,-3.20001 11,4.81 z"
     fill="#ffb8b8"
     id="path84"
     inkscape:export-filename="/home/user/Downloads/favico.png"
     inkscape:export-xdpi="96"
     inkscape:export-ydpi="96" />
  <path
     d="m 298.49,630.75459 a 19.61817,19.61817 0 0 0 0.53,-2 c 0.12,-0.53 0.22,-1.05 0.3,-1.58 0.53,-3.49 0.52,-7.06 1.35,-10.49 1.17,-4.91 4.68,-10.72 1.79,-14.85 a 15.69052,15.69052 0 0 0 6.21,-2.78 c 1.72,-1.5 2.72,-4.1 1.68,-6.14 -1.03,-2.01 -3.82,-3.34 -3.44,-5.57 a 5.313,5.313 0 0 1 0.98,-1.94 14.52982,14.52982 0 0 0 -0.25,-15.94 c -0.91,-1.3 -2.03,-2.44 -2.86,-3.8 a 22.66345,22.66345 0 0 1 -2.07,-5.27 98.1662,98.1662 0 0 0 -12.63,-26.18 17.37178,17.37178 0 0 1 -2.79,-5.16 21.30405,21.30405 0 0 1 -0.22,-6.13 c 0.2,-8.08 -2.82,-15.97 -7.17,-22.77 -0.32,-0.5 -0.65,-0.99 -0.98,-1.48 -4.2,-6.19 -9.41,-11.62 -14.6,-17.01 -2.14,1 -4.03,1.65 -5.14,3.73 a 11.086,11.086 0 0 0 -0.99,3.72 c -1.42,9.9 -2.65,19.86 -3.61,29.81 -0.48,5.03 -0.97,10.1 -0.4,15.12 0.57,5.02 2.28,10.05 5.68,13.78 2.13,2.34 4.83,4.08 7.14,6.24 q 0.555,0.525 1.08,1.08 a 35.40951,35.40951 0 0 1 4.41,5.79 49.92056,49.92056 0 0 1 7.34,29.93 48.64077,48.64077 0 0 1 -0.75,5.64 23.32684,23.32684 0 0 1 -2.66,7.6 c -1.05,1.73 -2.43,3.24 -3.38,5.03 -0.95,1.79 -1.4,4.02 -0.46,5.81 a 11.83106,11.83106 0 0 1 4.13,0.74 17.52948,17.52948 0 0 1 7.8,5.95 25.93811,25.93811 0 0 1 1.98,3.04 37.44769,37.44769 0 0 1 1.98,4.08 c 0.24,0.55 0.47,1.12 0.69,1.69 a 1.65873,1.65873 0 0 1 0.12,0.31 z"
     fill="#2f2e41"
     id="path86"
     inkscape:export-filename="/home/user/Downloads/favico.png"
     inkscape:export-xdpi="96"
     inkscape:export-ydpi="96" />
  <polygon
     points="296.446,407.631 297.443,427.746 319.543,417.521 324.519,417.029 348.195,422.725 345.231,402.805 324.027,412.053 319.051,412.545 "
     fill="#6c63ff"
     id="polygon88"
     transform="translate(-128.5,53.969941)"
     inkscape:export-filename="/home/user/Downloads/favico.png"
     inkscape:export-xdpi="96"
     inkscape:export-ydpi="96" />
  <path
     d="m 259.24,628.75459 c 0.22,0.66 0.41,1.33 0.58,2 h 7.42 a 18.53555,18.53555 0 0 0 1.66,-2 z m -195.99,-439 v 441 h 276.5 v -441 z m 274.5,439 H 65.25 v -437 h 272.5 z m -78.51,0 c 0.22,0.66 0.41,1.33 0.58,2 h 7.42 a 18.53555,18.53555 0 0 0 1.66,-2 z"
     fill="#2f2e41"
     id="path90"
     inkscape:export-filename="/home/user/Downloads/favico.png"
     inkscape:export-xdpi="96"
     inkscape:export-ydpi="96"
     style="stroke:#000000;stroke-opacity:1" />
  <path
     d="m 154.10107,382.68769 0.17139,-0.85986 c 0.0508,-0.25537 4.94483,-25.82471 -7.665,-49.78418 l -0.91211,-1.73291 1.93848,0.27735 c 0.55664,0.0796 13.28906,2.12207 22.417,22.22216 0.80127,-3.063 1.60791,-9.50537 -0.89746,-20.36035 l -0.35644,-1.54541 1.54785,0.34424 c 0.48193,0.10693 11.46923,2.69678 15.82519,16.041 l 17.29492,-14.63428 v 23.77251 c 4.65137,-2.36572 18.91455,-8.731 27.98633,-3.062 l 1.38379,0.86523 -1.39892,0.84033 c -0.11866,0.0713 -11.26172,6.83057 -13.4712,13.6709 2.603,0.022 8.81055,0.11133 14.957,0.48 15.78613,0.94727 17.10839,2.76465 17.10839,4.39356 v 0.5708 l -0.49121,0.29 c -0.27978,0.16552 -27.999,16.69043 -28.61328,29.58349 l -0.0635,1.32715 z m 62.59229,-11.95214 h -1.18066 l 0.19433,-1.16455 c 1.09717,-6.58448 9.71729,-12.93409 13.23291,-15.27686 -9.90869,-4.37744 -25.812,4.57324 -25.979,4.66846 l -1.4961,0.854 v -22.84864 l -16.3667,13.84863 -0.41308,-1.51367 c -2.86817,-10.51514 -10.01758,-14.37061 -13.208,-15.59961 3.2915,15.76123 -0.33057,22.0498 -0.4917,22.31885 l -1.02392,1.707 -0.7583,-1.84082 c -6.61377,-16.06348 -15.73536,-21.17139 -19.7793,-22.70508 10.3999,21.457 7.68262,43.56494 6.958,48.168 l 62.68359,21.3125 c 2.00537,-12.36524 23.55811,-26.28467 28.49219,-29.32471 -3.04541,-1.61864 -17.74903,-2.6035 -30.86426,-2.6035 z"
     fill="#6c63ff"
     id="path92"
     inkscape:export-filename="/home/user/Downloads/favico.png"
     inkscape:export-xdpi="96"
     inkscape:export-ydpi="96" />
  <path
     d="m 140.67139,320.5832 a 3.58691,3.58691 0 1 1 3.58691,3.58692 3.59072,3.59072 0 0 1 -3.58691,-3.58692 z m 2,0 a 1.58691,1.58691 0 1 0 1.58691,-1.58691 1.58875,1.58875 0 0 0 -1.58691,1.58691 z"
     fill="#6c63ff"
     id="path94"
     inkscape:export-filename="/home/user/Downloads/favico.png"
     inkscape:export-xdpi="96"
     inkscape:export-ydpi="96" />
  <path
     d="m 166.541,320.5832 a 3.58691,3.58691 0 1 1 3.58691,3.58692 3.59072,3.59072 0 0 1 -3.58691,-3.58692 z m 2,0 a 1.58691,1.58691 0 1 0 1.58691,-1.58691 1.58875,1.58875 0 0 0 -1.58691,1.58691 z"
     fill="#6c63ff"
     id="path96"
     inkscape:export-filename="/home/user/Downloads/favico.png"
     inkscape:export-xdpi="96"
     inkscape:export-ydpi="96" />
  <path
     d="m 204.05176,327.05096 a 3.58692,3.58692 0 1 1 3.58691,3.58691 3.59072,3.59072 0 0 1 -3.58691,-3.58691 z m 2,0 a 1.58692,1.58692 0 1 0 1.58691,-1.58692 1.58874,1.58874 0 0 0 -1.58691,1.58692 z"
     fill="#6c63ff"
     id="path98"
     inkscape:export-filename="/home/user/Downloads/favico.png"
     inkscape:export-xdpi="96"
     inkscape:export-ydpi="96" />
  <path
     d="m 254.49756,371.02896 a 3.58692,3.58692 0 1 1 3.58691,3.58692 3.59073,3.59073 0 0 1 -3.58691,-3.58692 z m 2,0 a 1.58692,1.58692 0 1 0 1.58691,-1.58691 1.58875,1.58875 0 0 0 -1.58691,1.58691 z"
     fill="#6c63ff"
     id="path100"
     inkscape:export-filename="/home/user/Downloads/favico.png"
     inkscape:export-xdpi="96"
     inkscape:export-ydpi="96" />
  <path
     d="m 236.38867,349.03975 a 3.58716,3.58716 0 1 1 3.58692,3.58691 3.59073,3.59073 0 0 1 -3.58692,-3.58691 z m 2,0 a 1.58716,1.58716 0 1 0 1.58692,-1.58692 1.58875,1.58875 0 0 0 -1.58692,1.58692 z"
     fill="#6c63ff"
     id="path102"
     inkscape:export-filename="/home/user/Downloads/favico.png"
     inkscape:export-xdpi="96"
     inkscape:export-ydpi="96" />
  <text
     xml:space="preserve"
     style="font-style:normal;font-weight:normal;font-size:40px;line-height:1.25;font-family:sans-serif;fill:#000000;fill-opacity:1;stroke:none"
     x="19.472717"
     y="117.40897"
     id="text4568"><tspan
       sodipodi:role="line"
       id="tspan4566"
       x="19.472717"
       y="117.40897" /></text>
  <text
     xml:space="preserve"
     style="font-style:normal;font-variant:normal;font-weight:normal;font-stretch:normal;font-size:73.3333px;line-height:1.25;font-family:'Liberation Serif';-inkscape-font-specification:'Liberation Serif';fill:#6c63ff;fill-opacity:1;stroke:none"
     x="-389.1843"
     y="-611.88995"
     id="text13020-8"
     transform="rotate(-179.85525)"
     inkscape:export-filename="/home/user/Downloads/favico.png"
     inkscape:export-xdpi="96"
     inkscape:export-ydpi="96"><tspan
       sodipodi:role="line"
       id="tspan13018-4"
       x="-389.1843"
       y="-611.88995"
       style="font-style:normal;font-variant:normal;font-weight:bold;font-stretch:normal;font-size:73.3333px;font-family:'Liberation Serif';-inkscape-font-specification:'Liberation Serif Bold'">P</tspan></text>
  <path
     d="M 31.83072,218.58298 A 8.01387,8.01387 0 0 0 20.49764,229.91651 L 31.83122,241.24964 43.1643,229.91601 A 8.01387,8.01387 0 0 0 31.83072,218.58298 Z"
     fill="#6c63ff"
     id="path66-1"
     inkscape:export-filename="/home/user/Downloads/favico.png"
     inkscape:export-xdpi="96"
     inkscape:export-ydpi="96" />
  <text
     xml:space="preserve"
     style="font-style:normal;font-variant:normal;font-weight:normal;font-stretch:normal;font-size:73.3333px;line-height:1.25;font-family:'Liberation Serif';-inkscape-font-specification:'Liberation Serif';fill:#6c63ff;fill-opacity:1;stroke:none"
     x="15.868595"
     y="203.78021"
     id="text13020-8-4"
     transform="rotate(0.14349836)"
     inkscape:export-filename="/home/user/Downloads/favico.png"
     inkscape:export-xdpi="96"
     inkscape:export-ydpi="96"><tspan
       sodipodi:role="line"
       id="tspan13018-4-9"
       x="15.868595"
       y="203.78021"
       style="font-style:normal;font-variant:normal;font-weight:bold;font-stretch:normal;font-size:73.3333px;font-family:'Liberation Serif';-inkscape-font-specification:'Liberation Serif Bold'">P</tspan></text>
  <text
     xml:space="preserve"
     style="font-style:normal;font-variant:normal;font-weight:normal;font-stretch:normal;font-size:73.3333px;line-height:1.25;font-family:'Liberation Serif';-inkscape-font-specification:'Liberation Serif';fill:#6c63ff;fill-opacity:1;stroke:none"
     x="417.22723"
     y="4.6449099"
     id="text13020-8-4-0"
     transform="rotate(17.216604)"
     inkscape:export-filename="/home/user/Downloads/favico.png"
     inkscape:export-xdpi="96"
     inkscape:export-ydpi="96"><tspan
       sodipodi:role="line"
       id="tspan13018-4-9-6"
       x="417.22723"
       y="4.6449099"
       style="font-style:normal;font-variant:normal;font-weight:bold;font-stretch:normal;font-size:73.3333px;font-family:'Liberation Serif';-inkscape-font-specification:'Liberation Serif Bold'">P</tspan></text>
  <text
     xml:space="preserve"
     style="font-style:normal;font-variant:normal;font-weight:normal;font-stretch:normal;font-size:73.3333px;line-height:1.25;font-family:'Liberation Serif';-inkscape-font-specification:'Liberation Serif';fill:#6c63ff;fill-opacity:1;stroke:none"
     x="-796.0152"
     y="-406.14258"
     id="text13020-8-4-8"
     transform="rotate(-162.72704)"
     inkscape:export-filename="/home/user/Downloads/favico.png"
     inkscape:export-xdpi="96"
     inkscape:export-ydpi="96"><tspan
       sodipodi:role="line"
       id="tspan13018-4-9-9"
       x="-796.0152"
       y="-406.14258"
       style="font-style:normal;font-variant:normal;font-weight:bold;font-stretch:normal;font-size:73.3333px;font-family:'Liberation Serif';-inkscape-font-specification:'Liberation Serif Bold'">P</tspan></text>
  <metadata
     id="metadata70239">
    <rdf:RDF>
      <cc:Work
         rdf:about="">
        <dc:title>playing cards</dc:title>
      </cc:Work>
    </rdf:RDF>
  </metadata>
</svg>
